<svg id="Layer_1" data-name="Layer 1" xmlns="http://www.w3.org/2000/svg" viewBox="0 0 388.48 110.3"><defs><style>.cls-1{fill:#006838;}.cls-2{fill:#fff200;}.cls-3{fill:#2e3192;}.cls-4{fill:#fbb040;}.cls-5{fill:#662d91;}.cls-6{fill:#ef4136;}.cls-7{fill:#231f20;}</style></defs><title>logo_disability_simulator</title><path class="cls-1" d="M63.09,11.22A40.34,40.34,0,0,0,46.09,7l.46,12.91a27.59,27.59,0,0,1,16.09,6.23l8.81-9.45a40.31,40.31,0,0,0-4.14-3.06ZM91-22.17" transform="translate(-4.53 22.17)"/><path class="cls-2" d="M48.48,75a.51.51,0,0,1,0,.11L49,88A40.52,40.52,0,0,0,72.61,77.44L63.13,68.6A27.56,27.56,0,0,1,48.48,75Zm0,0" transform="translate(-4.53 22.17)"/><path class="cls-3" d="M41.7,20.1,41.24,7.19A40.44,40.44,0,0,0,16.63,18.66l9.46,8.82A27.55,27.55,0,0,1,41.7,20.1Zm0,0" transform="translate(-4.53 22.17)"/><path class="cls-4" d="M22.85,31.09l-9.48-8.83A40.4,40.4,0,0,0,4.53,47.54l12.91-.46a27.49,27.49,0,0,1,5.41-16Zm0,0" transform="translate(-4.53 22.17)"/><path class="cls-5" d="M43.67,75.22a27.5,27.5,0,0,1-15.05-5.39l-8.83,9.48a40.33,40.33,0,0,0,24.32,8.83l-.46-12.8s0-.07,0-.11Zm0,0" transform="translate(-4.53 22.17)"/><path class="cls-6" d="M4.8,52.39A40.39,40.39,0,0,0,16.18,76L25,66.59a27.54,27.54,0,0,1-7.21-14.66Zm0,0" transform="translate(-4.53 22.17)"/><path class="cls-7" d="M65.86,35.63h3.49L59.46,60.21h-.77l-8-19.9-8.08,19.9h-.75L32,35.63h3.53L42.26,52.5l6.79-16.87h3.31L59.19,52.5Z" transform="translate(-4.53 22.17)"/><path class="cls-7" d="M82.15,52.32H70.81A5.26,5.26,0,0,0,72.36,56,5.11,5.11,0,0,0,76,57.37a9.6,9.6,0,0,0,5.82-2v3.12a10.64,10.64,0,0,1-2.92,1.4,12.2,12.2,0,0,1-3.39.42,7.61,7.61,0,0,1-4.31-1.1,8,8,0,0,1-2.64-3,9.08,9.08,0,0,1-1-4.32,8.58,8.58,0,0,1,2.08-6,7,7,0,0,1,5.41-2.3,6.38,6.38,0,0,1,5.12,2.24,9,9,0,0,1,1.91,6ZM70.88,50.41H79a4.45,4.45,0,0,0-1.14-2.94,3.66,3.66,0,0,0-2.73-1,3.93,3.93,0,0,0-2.81,1A5.12,5.12,0,0,0,70.88,50.41Z" transform="translate(-4.53 22.17)"/><path class="cls-7" d="M85.46,35.63h3.19v9.51a7.36,7.36,0,0,1,4.41-1.51,6.25,6.25,0,0,1,5,2.31A8.91,8.91,0,0,1,100,51.88a8.33,8.33,0,0,1-2.32,6.19,8.43,8.43,0,0,1-6.21,2.3A17.38,17.38,0,0,1,88.2,60a10.85,10.85,0,0,1-2.74-.84Zm3.19,12.56v8.72A11.54,11.54,0,0,0,92,57.4a4.42,4.42,0,0,0,3.46-1.51A5.61,5.61,0,0,0,96.79,52a5.91,5.91,0,0,0-1.25-3.91,4,4,0,0,0-3.27-1.51A5.63,5.63,0,0,0,88.65,48.19Z" transform="translate(-4.53 22.17)"/><path class="cls-7" d="M114,60.06V35.63h8.25a17.41,17.41,0,0,1,7.9,1.5,11.3,11.3,0,0,1,4.63,4.41,12.25,12.25,0,0,1,1.72,6.34,12.07,12.07,0,0,1-7.8,11.28,12.39,12.39,0,0,1-2.54.73,34,34,0,0,1-4.41.18Zm7.88-21.32h-4.38v18.2H122a17.92,17.92,0,0,0,4.08-.36,9.58,9.58,0,0,0,2.43-.91,8.31,8.31,0,0,0,1.78-1.36,9.07,9.07,0,0,0,2.59-6.64,8.4,8.4,0,0,0-2.66-6.43,8.51,8.51,0,0,0-2.25-1.52,9.44,9.44,0,0,0-2.41-.79A24.59,24.59,0,0,0,121.86,38.75Z" transform="translate(-4.53 22.17)"/><path class="cls-7" d="M142.06,37.2a1.87,1.87,0,0,1,1.35.54,1.78,1.78,0,0,1,.56,1.33,1.82,1.82,0,0,1-.56,1.33,1.84,1.84,0,0,1-1.35.56,1.77,1.77,0,0,1-1.3-.57,1.83,1.83,0,0,1-.56-1.32,1.81,1.81,0,0,1,.56-1.3A1.77,1.77,0,0,1,142.06,37.2ZM140.48,44h3.19V60.1h-3.19Z" transform="translate(-4.53 22.17)"/><path class="cls-7" d="M147.49,58.94V55.51A14.49,14.49,0,0,0,150.25,57a6.42,6.42,0,0,0,2.37.59,3,3,0,0,0,1.72-.49,1.41,1.41,0,0,0,.72-1.17,1.58,1.58,0,0,0-.46-1.17,10.8,10.8,0,0,0-2-1.34,14.22,14.22,0,0,1-4-2.93,4.21,4.21,0,0,1-1-2.65,3.73,3.73,0,0,1,1.45-3,5.72,5.72,0,0,1,3.72-1.17A10.25,10.25,0,0,1,157.62,45v3.15A9.71,9.71,0,0,0,153,46.44a2.58,2.58,0,0,0-1.5.4,1.21,1.21,0,0,0-.57,1,1.5,1.5,0,0,0,.52,1.07,8.83,8.83,0,0,0,1.81,1.23l1.14.65q4,2.28,4,5a4,4,0,0,1-1.55,3.25,6.09,6.09,0,0,1-4,1.27,9.73,9.73,0,0,1-2.56-.31A17.13,17.13,0,0,1,147.49,58.94Z" transform="translate(-4.53 22.17)"/><path class="cls-7" d="M172.21,50.41v6.85q0,.82.56.82a3.86,3.86,0,0,0,1.8-.86v1.94a10.43,10.43,0,0,1-1.74,1,3.79,3.79,0,0,1-1.37.25q-2.05,0-2.42-1.61a6.94,6.94,0,0,1-4.33,1.58,3.82,3.82,0,0,1-2.8-1.11,3.77,3.77,0,0,1-1.12-2.79,3.93,3.93,0,0,1,1.1-2.72,7.41,7.41,0,0,1,3.11-1.9l4.08-1.4v-.86a2.57,2.57,0,0,0-2.91-2.91q-2.61,0-5.08,2.7V45.86a6.62,6.62,0,0,1,5.34-2.19A6.17,6.17,0,0,1,170.61,45a4.3,4.3,0,0,1,.95,1.17,4.21,4.21,0,0,1,.53,1.45A21.56,21.56,0,0,1,172.21,50.41Zm-3.14,6.5V52.13l-2.14.82a7.22,7.22,0,0,0-2.3,1.31,2.36,2.36,0,0,0,0,3.27,2.26,2.26,0,0,0,1.66.63A4,4,0,0,0,169.07,56.91Z" transform="translate(-4.53 22.17)"/><path class="cls-7" d="M177.25,35.63h3.19v9.51a7.36,7.36,0,0,1,4.41-1.51,6.25,6.25,0,0,1,5,2.31,8.91,8.91,0,0,1,1.94,5.94,8.33,8.33,0,0,1-2.32,6.19,8.43,8.43,0,0,1-6.21,2.3A17.38,17.38,0,0,1,180,60a10.85,10.85,0,0,1-2.74-.84Zm3.19,12.56v8.72a11.54,11.54,0,0,0,3.35.49,4.42,4.42,0,0,0,3.46-1.51A5.61,5.61,0,0,0,188.59,52a5.91,5.91,0,0,0-1.25-3.91,4,4,0,0,0-3.27-1.51A5.63,5.63,0,0,0,180.44,48.19Z" transform="translate(-4.53 22.17)"/><path class="cls-7" d="M197,37.2a1.87,1.87,0,0,1,1.35.54,1.78,1.78,0,0,1,.56,1.33,1.82,1.82,0,0,1-.56,1.33A1.84,1.84,0,0,1,197,41a1.77,1.77,0,0,1-1.3-.57,1.83,1.83,0,0,1-.56-1.32,1.81,1.81,0,0,1,.56-1.3A1.77,1.77,0,0,1,197,37.2ZM195.4,44h3.19V60.1H195.4Z" transform="translate(-4.53 22.17)"/><path class="cls-7" d="M203.27,35.63h3.19V60.1h-3.19Z" transform="translate(-4.53 22.17)"/><path class="cls-7" d="M212.71,37.2a1.87,1.87,0,0,1,1.35.54,1.78,1.78,0,0,1,.56,1.33A1.91,1.91,0,0,1,212.71,41a1.77,1.77,0,0,1-1.3-.57,1.83,1.83,0,0,1-.56-1.32,1.81,1.81,0,0,1,.56-1.3A1.77,1.77,0,0,1,212.71,37.2ZM211.14,44h3.19V60.1h-3.19Z" transform="translate(-4.53 22.17)"/><path class="cls-7" d="M216.67,46.54l6-5.89V44h5.1v2.87h-5.1v7.89q0,2.76,2.29,2.76a7.12,7.12,0,0,0,3.63-1.14v3a8.05,8.05,0,0,1-4,1,5.32,5.32,0,0,1-3.64-1.28,3.63,3.63,0,0,1-.75-.87,4.57,4.57,0,0,1-.5-1.26,14.11,14.11,0,0,1-.2-3V46.86h-2.8Z" transform="translate(-4.53 22.17)"/><path class="cls-7" d="M240.77,44h3.58L232.93,68.32h-3.56l5.47-11.68L228.62,44h3.63l4.35,9.1Z" transform="translate(-4.53 22.17)"/><path class="cls-7" d="M263.06,49.85l-2.66-1.62a12.1,12.1,0,0,1-3.57-3,5.7,5.7,0,0,1-1.06-3.41,6,6,0,0,1,2-4.69,7.5,7.5,0,0,1,5.21-1.8A9.86,9.86,0,0,1,268.61,37v4a8.11,8.11,0,0,0-5.69-2.54,4.71,4.71,0,0,0-2.82.79,2.41,2.41,0,0,0-1.1,2,3.13,3.13,0,0,0,.81,2.06,10.22,10.22,0,0,0,2.62,2l2.68,1.58q4.48,2.67,4.48,6.81a6.24,6.24,0,0,1-2,4.78,7.21,7.21,0,0,1-5.12,1.84,10.76,10.76,0,0,1-6.6-2.23V53.7q2.84,3.6,6.57,3.6a4.13,4.13,0,0,0,2.74-.92,2.87,2.87,0,0,0,1.09-2.3Q266.28,51.85,263.06,49.85Z" transform="translate(-4.53 22.17)"/><path class="cls-7" d="M274.64,37.2a1.87,1.87,0,0,1,1.35.54,1.78,1.78,0,0,1,.56,1.33A1.91,1.91,0,0,1,274.64,41a1.77,1.77,0,0,1-1.3-.57,1.83,1.83,0,0,1-.56-1.32,1.81,1.81,0,0,1,.56-1.3A1.77,1.77,0,0,1,274.64,37.2ZM273.06,44h3.19V60.1h-3.19Z" transform="translate(-4.53 22.17)"/><path class="cls-7" d="M294.07,48.4V60.1h-3.21v-9a7.05,7.05,0,0,0-.72-3.74,2.81,2.81,0,0,0-2.5-1.06,3.75,3.75,0,0,0-1.83.46,8,8,0,0,0-1.9,1.61V60.1h-3.19V44h3.19V46.1q2.43-2.44,4.76-2.44a5.24,5.24,0,0,1,4.75,2.91q2.56-2.94,5.34-2.94a4.92,4.92,0,0,1,3.86,1.72,7.73,7.73,0,0,1,1.52,5.24V60.1H301V50.55a5,5,0,0,0-.82-3.08,2.81,2.81,0,0,0-2.37-1.07A4.89,4.89,0,0,0,294.07,48.4Z" transform="translate(-4.53 22.17)"/><path class="cls-7" d="M318.44,60.1V58a7.43,7.43,0,0,1-2.32,1.73,6,6,0,0,1-2.6.62,5.42,5.42,0,0,1-2.81-.76,5,5,0,0,1-1.94-2.07,10.36,10.36,0,0,1-.66-4.34V44h3.19v9.19a6.32,6.32,0,0,0,.73,3.54,2.94,2.94,0,0,0,2.55,1,4.66,4.66,0,0,0,3.87-2.23V44h3.19V60.1Z" transform="translate(-4.53 22.17)"/><path class="cls-7" d="M326.18,35.63h3.19V60.1h-3.19Z" transform="translate(-4.53 22.17)"/><path class="cls-7" d="M344.1,50.41v6.85q0,.82.56.82a3.86,3.86,0,0,0,1.8-.86v1.94a10.47,10.47,0,0,1-1.74,1,3.79,3.79,0,0,1-1.38.25q-2,0-2.42-1.61a6.94,6.94,0,0,1-4.33,1.58,3.82,3.82,0,0,1-2.8-1.11,3.77,3.77,0,0,1-1.12-2.79,3.93,3.93,0,0,1,1.09-2.72,7.41,7.41,0,0,1,3.11-1.9l4.08-1.4v-.86a2.57,2.57,0,0,0-2.91-2.91q-2.61,0-5.08,2.7V45.86a6.62,6.62,0,0,1,5.34-2.19A6.17,6.17,0,0,1,342.51,45a4.29,4.29,0,0,1,.95,1.17,4.21,4.21,0,0,1,.53,1.45A21.44,21.44,0,0,1,344.1,50.41ZM341,56.91V52.13l-2.14.82a7.21,7.21,0,0,0-2.3,1.31,2.36,2.36,0,0,0,0,3.27,2.26,2.26,0,0,0,1.66.63A4,4,0,0,0,341,56.91Z" transform="translate(-4.53 22.17)"/><path class="cls-7" d="M347,46.54l6-5.89V44h5.1v2.87H353v7.89q0,2.76,2.29,2.76a7.12,7.12,0,0,0,3.63-1.14v3a8.05,8.05,0,0,1-4,1,5.32,5.32,0,0,1-3.64-1.28,3.63,3.63,0,0,1-.75-.87A4.57,4.57,0,0,1,350,57a14.11,14.11,0,0,1-.2-3V46.86H347Z" transform="translate(-4.53 22.17)"/><path class="cls-7" d="M368.94,43.95a8.4,8.4,0,0,1,6.11,2.37,8,8,0,0,1,2.44,6A7.58,7.58,0,0,1,375,58.08a8.76,8.76,0,0,1-6.22,2.3A8.41,8.41,0,0,1,362.74,58a8.26,8.26,0,0,1,0-11.74A8.57,8.57,0,0,1,368.94,43.95Zm-.17,2.87A5,5,0,0,0,365,48.33a5.26,5.26,0,0,0-1.47,3.84A5,5,0,0,0,365,55.94a5.33,5.33,0,0,0,3.87,1.46,5.24,5.24,0,0,0,3.85-1.48,5.48,5.48,0,0,0-.06-7.59A5.42,5.42,0,0,0,368.77,46.82Z" transform="translate(-4.53 22.17)"/><path class="cls-7" d="M384.45,44v3.7l.18-.28q2.31-3.73,4.63-3.73A5.7,5.7,0,0,1,393,45.49l-1.68,2.8a4.72,4.72,0,0,0-3.08-1.58,3.3,3.3,0,0,0-2.67,1.47,5.56,5.56,0,0,0-1.13,3.49V60.1h-3.21V44Z" transform="translate(-4.53 22.17)"/></svg>